<?xml version="1.0" standalone="no"?><svg xmlns="http://www.w3.org/2000/svg" viewBox="0 0 1440 320"><path fill="#0099ff" fill-opacity="1" d="M0,32L21.8,37.3C43.6,43,87,53,131,64C174.5,75,218,85,262,96C305.5,107,349,117,393,154.7C436.4,192,480,256,524,266.7C567.3,277,611,235,655,213.3C698.2,192,742,192,785,181.3C829.1,171,873,149,916,149.3C960,149,1004,171,1047,154.7C1090.9,139,1135,85,1178,53.3C1221.8,21,1265,11,1309,10.7C1352.7,11,1396,21,1418,26.7L1440,32L1440,320L1418.2,320C1396.4,320,1353,320,1309,320C1265.5,320,1222,320,1178,320C1134.5,320,1091,320,1047,320C1003.6,320,960,320,916,320C872.7,320,829,320,785,320C741.8,320,698,320,655,320C610.9,320,567,320,524,320C480,320,436,320,393,320C349.1,320,305,320,262,320C218.2,320,175,320,131,320C87.3,320,44,320,22,320L0,320Z"></path></svg>